<mxfile host="app.diagrams.net" modified="2023-06-11T15:43:52.412Z" agent="Mozilla/5.0 (Windows NT 10.0; Win64; x64) AppleWebKit/537.36 (KHTML, like Gecko) Chrome/114.0.0.0 Safari/537.36" etag="6uhMYUnRJKx8LQhQTmmv" version="21.3.8" type="github">
  <diagram name="Page-1" id="RcBy7nSP0-DTnzpYD3Su">
    <mxGraphModel dx="1434" dy="764" grid="1" gridSize="10" guides="1" tooltips="1" connect="1" arrows="1" fold="1" page="1" pageScale="1" pageWidth="850" pageHeight="1100" math="0" shadow="0">
      <root>
        <mxCell id="0" />
        <mxCell id="1" parent="0" />
        <mxCell id="xMmmRE5P2e0C1GfOfxzF-4" value="IT-User1" style="image;aspect=fixed;perimeter=ellipsePerimeter;html=1;align=center;shadow=0;dashed=0;spacingTop=3;image=img/lib/active_directory/laptop_client.svg;fontStyle=1" vertex="1" parent="1">
          <mxGeometry x="168.00000000000006" y="838.12" width="45" height="50" as="geometry" />
        </mxCell>
        <mxCell id="xMmmRE5P2e0C1GfOfxzF-5" value="IT-User2" style="image;aspect=fixed;perimeter=ellipsePerimeter;html=1;align=center;shadow=0;dashed=0;spacingTop=3;image=img/lib/active_directory/laptop_client.svg;fontStyle=1" vertex="1" parent="1">
          <mxGeometry x="285.9" y="838.12" width="45" height="50" as="geometry" />
        </mxCell>
        <mxCell id="xMmmRE5P2e0C1GfOfxzF-6" value="EndUser1" style="image;aspect=fixed;perimeter=ellipsePerimeter;html=1;align=center;shadow=0;dashed=0;spacingTop=3;image=img/lib/active_directory/laptop_client.svg;fontStyle=1" vertex="1" parent="1">
          <mxGeometry x="405.3999999999999" y="838.12" width="45" height="50" as="geometry" />
        </mxCell>
        <mxCell id="xMmmRE5P2e0C1GfOfxzF-7" value="EndUser2" style="image;aspect=fixed;perimeter=ellipsePerimeter;html=1;align=center;shadow=0;dashed=0;spacingTop=3;image=img/lib/active_directory/laptop_client.svg;fontStyle=1" vertex="1" parent="1">
          <mxGeometry x="528" y="838.12" width="45" height="50" as="geometry" />
        </mxCell>
        <mxCell id="xMmmRE5P2e0C1GfOfxzF-8" value="EndUser3" style="image;aspect=fixed;perimeter=ellipsePerimeter;html=1;align=center;shadow=0;dashed=0;spacingTop=3;image=img/lib/active_directory/laptop_client.svg;fontStyle=1" vertex="1" parent="1">
          <mxGeometry x="648" y="838.12" width="45" height="50" as="geometry" />
        </mxCell>
        <mxCell id="xMmmRE5P2e0C1GfOfxzF-9" value="EndUser4" style="image;aspect=fixed;perimeter=ellipsePerimeter;html=1;align=center;shadow=0;dashed=0;spacingTop=3;image=img/lib/active_directory/laptop_client.svg;fontStyle=1" vertex="1" parent="1">
          <mxGeometry x="768" y="838.12" width="45" height="50" as="geometry" />
        </mxCell>
        <mxCell id="xMmmRE5P2e0C1GfOfxzF-12" value="&lt;b&gt;windows server&amp;nbsp;&amp;nbsp;&lt;/b&gt;" style="image;aspect=fixed;perimeter=ellipsePerimeter;html=1;align=center;shadow=0;dashed=0;spacingTop=3;image=img/lib/active_directory/windows_server_2.svg;" vertex="1" parent="1">
          <mxGeometry x="371.66999999999996" y="590" width="67" height="83.75" as="geometry" />
        </mxCell>
        <mxCell id="xMmmRE5P2e0C1GfOfxzF-13" value="" style="image;aspect=fixed;perimeter=ellipsePerimeter;html=1;align=center;shadow=0;dashed=0;spacingTop=3;image=img/lib/active_directory/database_cube.svg;" vertex="1" parent="1">
          <mxGeometry x="363.4" y="649.69" width="21.65" height="24.06" as="geometry" />
        </mxCell>
        <mxCell id="xMmmRE5P2e0C1GfOfxzF-14" value="&lt;span&gt;file server&lt;/span&gt;" style="image;aspect=fixed;perimeter=ellipsePerimeter;html=1;align=center;shadow=0;dashed=0;spacingTop=3;image=img/lib/active_directory/database_server.svg;fontStyle=1" vertex="1" parent="1">
          <mxGeometry x="40" y="821.87" width="54.33" height="66.25" as="geometry" />
        </mxCell>
        <mxCell id="xMmmRE5P2e0C1GfOfxzF-15" value="&lt;b&gt;host (workstation)&lt;/b&gt;" style="image;aspect=fixed;perimeter=ellipsePerimeter;html=1;align=center;shadow=0;dashed=0;spacingTop=3;image=img/lib/active_directory/vista_terminal.svg;" vertex="1" parent="1">
          <mxGeometry x="358.59999999999997" y="360" width="74.5" height="114.62" as="geometry" />
        </mxCell>
        <mxCell id="xMmmRE5P2e0C1GfOfxzF-18" value="&lt;b&gt;internet&lt;/b&gt;" style="image;aspect=fixed;perimeter=ellipsePerimeter;html=1;align=center;shadow=0;dashed=0;spacingTop=3;image=img/lib/active_directory/internet_globe.svg;" vertex="1" parent="1">
          <mxGeometry x="349.34999999999997" y="40" width="90" height="90" as="geometry" />
        </mxCell>
        <mxCell id="xMmmRE5P2e0C1GfOfxzF-19" value="" style="image;aspect=fixed;perimeter=ellipsePerimeter;html=1;align=center;shadow=0;dashed=0;spacingTop=3;image=img/lib/active_directory/generic_server.svg;" vertex="1" parent="1">
          <mxGeometry x="422.2" y="436.43" width="30" height="53.57" as="geometry" />
        </mxCell>
        <mxCell id="xMmmRE5P2e0C1GfOfxzF-21" value="&lt;b&gt;home network&lt;/b&gt;" style="image;aspect=fixed;perimeter=ellipsePerimeter;html=1;align=center;shadow=0;dashed=0;spacingTop=3;image=img/lib/active_directory/modem.svg;" vertex="1" parent="1">
          <mxGeometry x="376.67" y="220" width="50" height="41.5" as="geometry" />
        </mxCell>
        <mxCell id="xMmmRE5P2e0C1GfOfxzF-30" value="&amp;nbsp;192.168.1.100&amp;nbsp;" style="text;html=1;align=center;verticalAlign=middle;resizable=0;points=[];autosize=1;fontStyle=1;rounded=1;glass=0;shadow=0;labelBackgroundColor=#3399FF;fontColor=#FFFFFF;labelBorderColor=default;fontSize=15;" vertex="1" parent="1">
          <mxGeometry x="340.16999999999996" y="700" width="130" height="30" as="geometry" />
        </mxCell>
        <mxCell id="xMmmRE5P2e0C1GfOfxzF-31" value="&amp;nbsp;192.168.1.200&amp;nbsp;" style="text;html=1;align=center;verticalAlign=middle;resizable=0;points=[];autosize=1;fontStyle=1;rounded=1;glass=0;shadow=0;labelBackgroundColor=#3399FF;fontColor=#FFFFFF;labelBorderColor=default;fontSize=14;" vertex="1" parent="1">
          <mxGeometry x="6.2299999999999685" y="910" width="120" height="30" as="geometry" />
        </mxCell>
        <mxCell id="xMmmRE5P2e0C1GfOfxzF-32" value="&amp;nbsp;192.168.1.110&amp;nbsp;" style="text;html=1;align=center;verticalAlign=middle;resizable=0;points=[];autosize=1;fontStyle=1;rounded=1;glass=0;shadow=0;labelBackgroundColor=#3399FF;fontColor=#FFFFFF;labelBorderColor=default;fontSize=14;" vertex="1" parent="1">
          <mxGeometry x="129.56999999999996" y="910" width="120" height="30" as="geometry" />
        </mxCell>
        <mxCell id="xMmmRE5P2e0C1GfOfxzF-33" value="&amp;nbsp;192.168.1.120&amp;nbsp;" style="text;html=1;align=center;verticalAlign=middle;resizable=0;points=[];autosize=1;fontStyle=1;rounded=1;glass=0;shadow=0;labelBackgroundColor=#3399FF;fontColor=#FFFFFF;labelBorderColor=default;fontSize=14;" vertex="1" parent="1">
          <mxGeometry x="247.46999999999997" y="910" width="120" height="30" as="geometry" />
        </mxCell>
        <mxCell id="xMmmRE5P2e0C1GfOfxzF-34" value="&amp;nbsp;192.168.1.130&amp;nbsp;" style="text;html=1;align=center;verticalAlign=middle;resizable=0;points=[];autosize=1;fontStyle=1;rounded=1;glass=0;shadow=0;labelBackgroundColor=#3399FF;fontColor=#FFFFFF;labelBorderColor=default;fontSize=14;" vertex="1" parent="1">
          <mxGeometry x="374.77" y="910" width="120" height="30" as="geometry" />
        </mxCell>
        <mxCell id="xMmmRE5P2e0C1GfOfxzF-39" value="&amp;nbsp;192.168.1.140&amp;nbsp;" style="text;html=1;align=center;verticalAlign=middle;resizable=0;points=[];autosize=1;fontStyle=1;rounded=1;glass=0;shadow=0;labelBackgroundColor=#3399FF;fontColor=#FFFFFF;labelBorderColor=default;fontSize=14;" vertex="1" parent="1">
          <mxGeometry x="489.57" y="910" width="120" height="30" as="geometry" />
        </mxCell>
        <mxCell id="xMmmRE5P2e0C1GfOfxzF-40" value="&amp;nbsp;192.168.1.150&amp;nbsp;" style="text;html=1;align=center;verticalAlign=middle;resizable=0;points=[];autosize=1;fontStyle=1;rounded=1;glass=0;shadow=0;labelBackgroundColor=#3399FF;fontColor=#FFFFFF;labelBorderColor=default;fontSize=14;" vertex="1" parent="1">
          <mxGeometry x="609.57" y="910" width="120" height="30" as="geometry" />
        </mxCell>
        <mxCell id="xMmmRE5P2e0C1GfOfxzF-41" value="&amp;nbsp;192.168.1.160&amp;nbsp;" style="text;html=1;align=center;verticalAlign=middle;resizable=0;points=[];autosize=1;fontStyle=1;rounded=1;glass=0;shadow=0;labelBackgroundColor=#3399FF;fontColor=#FFFFFF;labelBorderColor=default;fontSize=14;" vertex="1" parent="1">
          <mxGeometry x="729.5699999999999" y="910" width="120" height="30" as="geometry" />
        </mxCell>
        <mxCell id="xMmmRE5P2e0C1GfOfxzF-42" value="&amp;nbsp;192.168.1.12&amp;nbsp;" style="text;html=1;align=center;verticalAlign=middle;resizable=0;points=[];autosize=1;fontStyle=1;rounded=1;glass=0;shadow=0;labelBackgroundColor=#3399FF;fontColor=#FFFFFF;labelBorderColor=default;fontSize=15;" vertex="1" parent="1">
          <mxGeometry x="341.66999999999996" y="510" width="120" height="30" as="geometry" />
        </mxCell>
        <mxCell id="xMmmRE5P2e0C1GfOfxzF-43" value="&amp;nbsp;192.168.1.1&amp;nbsp;" style="text;html=1;align=center;verticalAlign=middle;resizable=0;points=[];autosize=1;fontStyle=1;rounded=1;glass=0;shadow=0;labelBackgroundColor=#3399FF;fontColor=#FFFFFF;labelBorderColor=default;fontSize=14;" vertex="1" parent="1">
          <mxGeometry x="346.66999999999996" y="290" width="110" height="30" as="geometry" />
        </mxCell>
        <mxCell id="xMmmRE5P2e0C1GfOfxzF-44" value="" style="curved=1;endArrow=oval;html=1;rounded=0;endFill=1;startArrow=oval;startFill=1;" edge="1" parent="1">
          <mxGeometry width="50" height="50" relative="1" as="geometry">
            <mxPoint x="60" y="810" as="sourcePoint" />
            <mxPoint x="330" y="700" as="targetPoint" />
            <Array as="points">
              <mxPoint x="50" y="720" />
            </Array>
          </mxGeometry>
        </mxCell>
        <mxCell id="xMmmRE5P2e0C1GfOfxzF-46" value="" style="curved=1;endArrow=oval;html=1;rounded=0;endFill=1;startArrow=oval;startFill=1;" edge="1" parent="1">
          <mxGeometry width="50" height="50" relative="1" as="geometry">
            <mxPoint x="200" y="820" as="sourcePoint" />
            <mxPoint x="330.9" y="720" as="targetPoint" />
            <Array as="points">
              <mxPoint x="191.70000000000002" y="741.87" />
            </Array>
          </mxGeometry>
        </mxCell>
        <mxCell id="xMmmRE5P2e0C1GfOfxzF-47" value="" style="curved=1;endArrow=oval;html=1;rounded=0;endFill=1;startArrow=oval;startFill=1;" edge="1" parent="1">
          <mxGeometry width="50" height="50" relative="1" as="geometry">
            <mxPoint x="300" y="820" as="sourcePoint" />
            <mxPoint x="346.67" y="730" as="targetPoint" />
            <Array as="points">
              <mxPoint x="286.82" y="739.99" />
            </Array>
          </mxGeometry>
        </mxCell>
        <mxCell id="xMmmRE5P2e0C1GfOfxzF-48" value="" style="curved=1;endArrow=oval;html=1;rounded=0;endFill=1;startArrow=oval;startFill=1;" edge="1" parent="1">
          <mxGeometry width="50" height="50" relative="1" as="geometry">
            <mxPoint x="455" y="820" as="sourcePoint" />
            <mxPoint x="470" y="730" as="targetPoint" />
            <Array as="points">
              <mxPoint x="508.54999999999995" y="730" />
            </Array>
          </mxGeometry>
        </mxCell>
        <mxCell id="xMmmRE5P2e0C1GfOfxzF-49" value="" style="curved=1;endArrow=oval;html=1;rounded=0;startArrow=oval;startFill=1;endFill=1;" edge="1" parent="1">
          <mxGeometry width="50" height="50" relative="1" as="geometry">
            <mxPoint x="548.3" y="830" as="sourcePoint" />
            <mxPoint x="470" y="710" as="targetPoint" />
            <Array as="points">
              <mxPoint x="540" y="751.87" />
            </Array>
          </mxGeometry>
        </mxCell>
        <mxCell id="xMmmRE5P2e0C1GfOfxzF-50" value="" style="curved=1;endArrow=oval;html=1;rounded=0;endFill=1;startArrow=oval;startFill=1;" edge="1" parent="1">
          <mxGeometry width="50" height="50" relative="1" as="geometry">
            <mxPoint x="668.3" y="830" as="sourcePoint" />
            <mxPoint x="480" y="700" as="targetPoint" />
            <Array as="points">
              <mxPoint x="660" y="751.87" />
            </Array>
          </mxGeometry>
        </mxCell>
        <mxCell id="xMmmRE5P2e0C1GfOfxzF-51" value="" style="curved=1;endArrow=oval;html=1;rounded=0;startArrow=oval;startFill=1;endFill=1;" edge="1" parent="1">
          <mxGeometry width="50" height="50" relative="1" as="geometry">
            <mxPoint x="793.8" y="833.75" as="sourcePoint" />
            <mxPoint x="490" y="680" as="targetPoint" />
            <Array as="points">
              <mxPoint x="785.5" y="755.62" />
            </Array>
          </mxGeometry>
        </mxCell>
        <mxCell id="xMmmRE5P2e0C1GfOfxzF-52" value="" style="curved=1;endArrow=oval;html=1;rounded=0;startArrow=oval;startFill=1;endFill=1;" edge="1" parent="1">
          <mxGeometry width="50" height="50" relative="1" as="geometry">
            <mxPoint x="480.17" y="630" as="sourcePoint" />
            <mxPoint x="470.17" y="470" as="targetPoint" />
            <Array as="points">
              <mxPoint x="600" y="540" />
            </Array>
          </mxGeometry>
        </mxCell>
        <mxCell id="xMmmRE5P2e0C1GfOfxzF-53" value="" style="curved=1;endArrow=oval;html=1;rounded=0;startArrow=oval;startFill=1;endFill=1;" edge="1" parent="1">
          <mxGeometry width="50" height="50" relative="1" as="geometry">
            <mxPoint x="480" y="430" as="sourcePoint" />
            <mxPoint x="470.17" y="290" as="targetPoint" />
            <Array as="points">
              <mxPoint x="600" y="360" />
            </Array>
          </mxGeometry>
        </mxCell>
        <mxCell id="xMmmRE5P2e0C1GfOfxzF-58" value="" style="curved=1;endArrow=none;html=1;rounded=0;startArrow=block;startFill=0;endFill=0;" edge="1" parent="1">
          <mxGeometry width="50" height="50" relative="1" as="geometry">
            <mxPoint x="440" y="240" as="sourcePoint" />
            <mxPoint x="440" y="80" as="targetPoint" />
            <Array as="points">
              <mxPoint x="540" y="160" />
            </Array>
          </mxGeometry>
        </mxCell>
        <mxCell id="xMmmRE5P2e0C1GfOfxzF-59" value="" style="curved=1;endArrow=block;html=1;rounded=0;startArrow=none;startFill=0;endFill=0;" edge="1" parent="1">
          <mxGeometry width="50" height="50" relative="1" as="geometry">
            <mxPoint x="346.67" y="240" as="sourcePoint" />
            <mxPoint x="346.67" y="80" as="targetPoint" />
            <Array as="points">
              <mxPoint x="250" y="160" />
            </Array>
          </mxGeometry>
        </mxCell>
      </root>
    </mxGraphModel>
  </diagram>
</mxfile>
